REM DIRINDEX 1\2,1\3,1\4,1\5
REM DIRNAME folder01,folder02,folder03,folder04,folder05
TITLE ""
FILE "Round-14-338-339.mp3" MP3
  TRACK 01 AUDIO
    TITLE "0:"
    INDEX 01 00:00:00
  TRACK 02 AUDIO
    TITLE "2:cjc093_3708"
    INDEX 01 00:00:01
  TRACK 03 AUDIO
    TITLE "0:"
    INDEX 01 00:01:17
  TRACK 04 AUDIO
    TITLE "3:cjc093_3709"
    INDEX 01 00:01:52
  TRACK 05 AUDIO
    TITLE "0:"
    INDEX 01 00:04:50
  TRACK 06 AUDIO
    TITLE "4:cjc093_3710"
    INDEX 01 00:05:05
  TRACK 07 AUDIO
    TITLE "0:"
    INDEX 01 00:09:45
  TRACK 08 AUDIO
    TITLE "2:cjc093_3711"
    INDEX 01 00:10:55
  TRACK 09 AUDIO
    TITLE "0:"
    INDEX 01 00:11:66
  TRACK 10 AUDIO
    TITLE "3:cjc093_3712"
    INDEX 01 00:12:26
  TRACK 11 AUDIO
    TITLE "0:"
    INDEX 01 00:14:45
  TRACK 12 AUDIO
    TITLE "4:cjc093_3713"
    INDEX 01 00:14:68
  TRACK 13 AUDIO
    TITLE "0:"
    INDEX 01 00:18:23
  TRACK 14 AUDIO
    TITLE "4:cjc093_3714"
    INDEX 01 00:18:66
  TRACK 15 AUDIO
    TITLE "0:"
    INDEX 01 00:21:27
  TRACK 16 AUDIO
    TITLE "2:cjc093_3715"
    INDEX 01 00:22:40
  TRACK 17 AUDIO
    TITLE "0:"
    INDEX 01 00:23:44
  TRACK 18 AUDIO
    TITLE "3:cjc093_3716"
    INDEX 01 00:24:12
  TRACK 19 AUDIO
    TITLE "0:"
    INDEX 01 00:26:60
  TRACK 20 AUDIO
    TITLE "4:cjc093_3717"
    INDEX 01 00:27:18
  TRACK 21 AUDIO
    TITLE "0:"
    INDEX 01 00:30:54
  TRACK 22 AUDIO
    TITLE "2:cjc093_3718"
    INDEX 01 00:31:65
  TRACK 23 AUDIO
    TITLE "0:"
    INDEX 01 00:32:74
  TRACK 24 AUDIO
    TITLE "3:cjc093_3719"
    INDEX 01 00:33:26
  TRACK 25 AUDIO
    TITLE "0:"
    INDEX 01 00:35:17
  TRACK 26 AUDIO
    TITLE "4:cjc093_3720"
    INDEX 01 00:35:64
  TRACK 27 AUDIO
    TITLE "0:"
    INDEX 01 00:39:33
  TRACK 28 AUDIO
    TITLE "2:cjc093_3721"
    INDEX 01 00:40:48
  TRACK 29 AUDIO
    TITLE "0:"
    INDEX 01 00:41:55
  TRACK 30 AUDIO
    TITLE "3:cjc093_3722"
    INDEX 01 00:42:19
  TRACK 31 AUDIO
    TITLE "0:"
    INDEX 01 00:44:30
  TRACK 32 AUDIO
    TITLE "4:cjc093_3723"
    INDEX 01 00:44:65
  TRACK 33 AUDIO
    TITLE "0:"
    INDEX 01 00:48:12
  TRACK 34 AUDIO
    TITLE "3:cjc093_3724"
    INDEX 01 00:49:27
  TRACK 35 AUDIO
    TITLE "0:"
    INDEX 01 00:51:60
  TRACK 36 AUDIO
    TITLE "4:cjc093_3725"
    INDEX 01 00:52:32
  TRACK 37 AUDIO
    TITLE "0:"
    INDEX 01 00:57:66
  TRACK 38 AUDIO
    TITLE "2:cjc093_3726"
    INDEX 01 00:59:04
  TRACK 39 AUDIO
    TITLE "0:"
    INDEX 01 01:00:33
  TRACK 40 AUDIO
    TITLE "3:cjc093_3727"
    INDEX 01 01:00:47
  TRACK 41 AUDIO
    TITLE "0:"
    INDEX 01 01:02:16
  TRACK 42 AUDIO
    TITLE "4:cjc093_3728"
    INDEX 01 01:02:54
  TRACK 43 AUDIO
    TITLE "0:"
    INDEX 01 01:06:32
  TRACK 44 AUDIO
    TITLE "2:cjc093_3729"
    INDEX 01 01:07:47
  TRACK 45 AUDIO
    TITLE "0:"
    INDEX 01 01:08:46
  TRACK 46 AUDIO
    TITLE "3:cjc093_3730"
    INDEX 01 01:09:10
  TRACK 47 AUDIO
    TITLE "0:"
    INDEX 01 01:10:43
  TRACK 48 AUDIO
    TITLE "4:cjc093_3731"
    INDEX 01 01:11:21
  TRACK 49 AUDIO
    TITLE "0:"
    INDEX 01 01:14:45
  TRACK 50 AUDIO
    TITLE "3:cjc093_3732"
    INDEX 01 01:15:60
  TRACK 51 AUDIO
    TITLE "0:"
    INDEX 01 01:17:43
  TRACK 52 AUDIO
    TITLE "4:cjc093_3733"
    INDEX 01 01:18:15
  TRACK 53 AUDIO
    TITLE "0:"
    INDEX 01 01:22:52
  TRACK 54 AUDIO
    TITLE "2:cjc093_3734"
    INDEX 01 01:23:65
  TRACK 55 AUDIO
    TITLE "0:"
    INDEX 01 01:24:71
  TRACK 56 AUDIO
    TITLE "3:cjc093_3735"
    INDEX 01 01:25:33
  TRACK 57 AUDIO
    TITLE "0:"
    INDEX 01 01:26:54
  TRACK 58 AUDIO
    TITLE "4:cjc093_3736"
    INDEX 01 01:27:55
  TRACK 59 AUDIO
    TITLE "0:"
    INDEX 01 01:30:36
